<?xml version="1.0" encoding="UTF-8"?><svg id="a" xmlns="http://www.w3.org/2000/svg" viewBox="0 0 425.25 275.95"><defs><style>.b{fill:#f3bd81;}.c{fill:#e9ac5a;}.d{fill:#fbb044;}.e{fill:#d8903a;}.f{fill:#c68233;}.g{fill:#070707;}.h{fill:#05a650;}.i{fill:#27a9e0;}.j{fill:#2aace3;}.k{opacity:.8;}</style></defs><g><g><path class="g" d="M186.22,210.14s-.05,0-.08,0c-.2-.03-4.9-.85-7.26-4.82-1.63-2.73-1.72-6.25-.27-10.45l1.76-3.75c.12-.25,.41-.36,.67-.24,.25,.12,.36,.42,.24,.67l-1.74,3.7c-1.33,3.86-1.27,7.09,.2,9.56,2.13,3.57,6.52,4.34,6.56,4.34,.27,.04,.46,.3,.41,.58-.04,.24-.25,.42-.49,.42Z"/><path class="g" d="M179.08,195.53c-.19,0-.37-.11-.45-.29l-1.81-3.79c-.12-.25-.01-.55,.24-.67,.25-.12,.55-.01,.67,.24l1.62,3.4,3.92-1.29c.26-.09,.54,.05,.63,.32,.09,.26-.06,.54-.32,.63l-4.34,1.43c-.05,.02-.1,.03-.16,.03Z"/></g><path class="e" d="M220.11,242.73c-9.26,10.94-25.86,15.02-37.77,4.4-4.44-3.95-7.76-9.19-7.76-15.19,0-4.08,1.4-8.02,3.46-11.54,2.12-3.63,5.31-6.4,7.65-9.87,1.39-2.06,1.78-4.62,2.61-6.92,1.26-3.48,2.76-6.88,4.68-10.06,1.27-2.09,2.72-4.09,4.46-5.84,1.04-1.04,2.18-2.01,3.47-2.75,.57-.33,1.17-.62,1.79-.86,2.48-.98,5.28-1.32,7.93-1.29,2.62,.03,5.2,.52,7.62,1.41-.46,.02-19.44,1.16-26.77,22.43-3.01,8.74-13.14,17.85-9.87,27.7,1.04,3.12,2.96,5.92,5.41,8.16,2.69,2.46,6.23,4.55,9.95,4.99,2.85,.33,5.71-.04,8.52-.46,3.63-.55,7.21-1.44,10.65-2.68,1.35-.49,2.67-1.03,3.98-1.63Z"/><path class="c" d="M226.5,231.62c-1.05,2.62-2.29,5.17-3.8,7.58-.78,1.24-1.64,2.43-2.59,3.53h0c-1.3,.61-2.62,1.15-3.98,1.63-3.44,1.24-7.02,2.13-10.65,2.68-2.81,.43-5.67,.79-8.52,.46-3.72-.43-7.26-2.53-9.95-4.99-2.44-2.24-4.37-5.04-5.41-8.16-3.27-9.85,6.86-18.96,9.87-27.7,7.33-21.27,26.32-22.4,26.77-22.43h0c1.92,.7,3.73,1.64,5.41,2.81,10.62,7.34,14.98,14.31,2.82,44.58Z"/><path class="b" d="M211.29,204.81c-.51,2.31-.93,4.64-1.36,6.96l-1.63,8.86c-.68,3.69-1.62,7.64-.07,11.26,1.52,3.53,6.17,6.93,10.17,5.14,4.88-2.18,7.85-6.91,9.79-11.56,1.81-4.36,3.18-9.12,4.04-13.75,.85-4.54,1.13-9.34-.08-13.85-1.2-4.48-6.05-9.57-11.28-8.95-3.07,.37-5.04,3-6.23,5.52-1.57,3.31-2.57,6.82-3.36,10.37Z"/><g><path class="g" d="M191.83,264.75c-.14,0-.28-.06-.38-.17-.18-.21-.16-.52,.05-.71l2.01-1.76c-2.96-.12-5.32-1.11-7.02-2.94-3.68-3.97-2.96-10.42-2.92-10.7s.28-.48,.56-.44c.27,.03,.47,.28,.44,.55,0,.06-.7,6.28,2.67,9.9,1.75,1.88,4.29,2.77,7.59,2.61,.21,0,.41,.12,.49,.31,.08,.2,.03,.42-.13,.56l-3.01,2.64c-.09,.08-.21,.12-.33,.12Z"/><path class="g" d="M205.83,263.08c-.13,0-.26-.05-.36-.16-.19-.2-.18-.52,.02-.71l1.95-1.86c-6.51,.27-10.84-.85-12.87-3.33-1.65-2.01-1.09-4.14-1.07-4.23,.07-.27,.35-.42,.61-.35,.27,.07,.42,.35,.35,.61h0c-.02,.07-.44,1.75,.89,3.36,1.35,1.63,4.76,3.45,13.37,2.88,.21-.02,.41,.11,.49,.3,.08,.19,.04,.42-.11,.56l-2.93,2.79c-.1,.09-.22,.14-.34,.14Z"/></g><g class="k"><path class="g" d="M209.16,211.66c-.33,0-.63-.08-.89-.23-.98-.59-.98-1.98-.98-2.14,0-.28,.26-.46,.51-.49,.28,0,.49,.23,.49,.51,0,.25,.08,1.02,.49,1.26,.33,.2,.94,.07,1.71-.37,.24-.14,.54-.05,.68,.19,.14,.24,.05,.54-.19,.68-.69,.39-1.3,.59-1.83,.59Z"/></g><g class="k"><path class="g" d="M208.76,195.53c-.17,0-.33-.08-.43-.24-.68-1.12-1.4-1.7-2.14-1.72-1.2-.08-2.18,1.37-2.19,1.38-.16,.23-.47,.28-.69,.13-.23-.16-.29-.47-.13-.69,.05-.08,1.29-1.9,3.04-1.82,1.1,.03,2.1,.77,2.97,2.2,.14,.24,.07,.54-.17,.69-.08,.05-.17,.07-.26,.07Z"/></g><g class="k"><path class="g" d="M224.54,203.01c-.27,0-.49-.21-.5-.48-.04-1.27-.38-2.11-.99-2.47-1.03-.61-2.62,.18-2.64,.19-.25,.13-.55,.03-.67-.22-.12-.25-.03-.55,.22-.67,.08-.04,2.09-1.05,3.6-.16,.93,.55,1.43,1.66,1.49,3.3,0,.28-.21,.51-.48,.52h-.02Z"/></g><path class="g" d="M206.03,205.03c-.07,0-.15-.02-.21-.05-.25-.12-.35-.42-.24-.67,.54-1.13,.82-2.12,.86-3.03,.02-.47,0-1.63-.69-2.34-.08-.08-.16-.13-.25-.15-.53-.09-1.26,.12-2.01,.59-.59,.37-1.09,.88-1.46,1.49-.28,.46-.48,.9-.59,1.32-.07,.27-.35,.43-.61,.35-.27-.07-.43-.35-.35-.61,.14-.51,.38-1.05,.71-1.59,.45-.73,1.06-1.35,1.78-1.81,.56-.35,1.66-.91,2.72-.72,.29,.05,.57,.21,.79,.44,.94,.99,.98,2.48,.96,3.07-.05,1.05-.36,2.17-.95,3.42-.09,.18-.26,.29-.45,.29Z"/><path class="g" d="M220.18,211.01c-.07,0-.15-.02-.22-.05-.25-.12-.35-.42-.24-.67,.54-1.13,.82-2.12,.86-3.03,.02-.47,0-1.63-.68-2.34-.08-.08-.16-.13-.24-.15-.53-.1-1.26,.12-2.01,.58-.59,.37-1.09,.88-1.46,1.49-.28,.46-.48,.9-.59,1.32-.07,.27-.34,.42-.61,.35-.27-.07-.43-.35-.35-.61,.14-.51,.38-1.05,.71-1.59,.45-.73,1.07-1.36,1.78-1.81,.56-.35,1.66-.92,2.72-.72,.3,.05,.56,.2,.79,.44,.94,.99,.98,2.48,.96,3.07-.04,1.05-.36,2.17-.95,3.42-.09,.18-.26,.28-.45,.28Z"/><g><path class="g" d="M233.68,232.21c-.66,0-1.31-.08-1.95-.24-5.22-1.31-7.56-7.45-7.66-7.71-.1-.26,.04-.55,.29-.64,.26-.09,.55,.03,.64,.29,.02,.06,2.27,5.92,6.97,7.09,2.92,.73,6.22-.47,9.79-3.57l-.43-3.43c-.03-.27,.16-.52,.43-.56,.25-.04,.52,.16,.56,.43l.47,3.69c.02,.16-.04,.33-.17,.44-3.17,2.79-6.17,4.2-8.95,4.2Z"/><path class="g" d="M246.16,228.67s-.05,0-.07,0l-3.86-.54c-.19-.03-.35-.16-.41-.35-.06-.18,0-.39,.14-.52l3.12-2.86c.2-.19,.52-.17,.71,.03s.17,.52-.03,.71l-2.33,2.14,2.81,.39c.27,.04,.46,.29,.43,.56-.03,.25-.25,.43-.49,.43Z"/></g><g class="k"><ellipse class="f" cx="181.11" cy="235.56" rx="3.15" ry=".95"/><ellipse class="f" cx="207.45" cy="228.9" rx="3.96" ry=".95"/><ellipse class="f" cx="198.87" cy="221.1" rx="2.21" ry="1.11"/><ellipse class="f" cx="190.23" cy="223.49" rx="2.33" ry=".98"/><ellipse class="f" cx="189.08" cy="248.9" rx="2.8" ry=".71"/><ellipse class="f" cx="206.59" cy="241.98" rx=".73" ry=".71"/><ellipse class="f" cx="189.32" cy="214.21" rx=".95" ry="3.25" transform="translate(-50.5 369.82) rotate(-81.51)"/><ellipse class="f" cx="208.44" cy="216.19" rx=".73" ry=".71"/><ellipse class="f" cx="225.82" cy="222.21" rx="2.33" ry=".74"/><ellipse class="f" cx="228.45" cy="209.02" rx=".78" ry=".74"/><ellipse class="f" cx="214.09" cy="205.93" rx=".73" ry=".71"/><ellipse class="f" cx="213.11" cy="193.72" rx=".59" ry="1.57" transform="translate(-16.07 368.12) rotate(-79.54)"/><ellipse class="f" cx="223.78" cy="198.3" rx=".59" ry="1.57" transform="translate(-11.85 382.36) rotate(-79.54)"/><ellipse class="f" cx="198.87" cy="196.68" rx=".59" ry="1.57" transform="translate(-30.64 356.54) rotate(-79.54)"/></g></g><g><g><path class="g" d="M153.56,210.14c-.24,0-.45-.17-.49-.42-.05-.27,.14-.53,.41-.58,.04,0,4.45-.79,6.57-4.35,1.47-2.47,1.53-5.7,.18-9.6l-1.72-3.65c-.12-.25-.01-.55,.24-.67,.25-.12,.55-.01,.67,.24l1.74,3.7c1.47,4.25,1.38,7.76-.25,10.5-2.36,3.96-7.06,4.79-7.26,4.82-.03,0-.06,0-.08,0Z"/><path class="g" d="M160.7,195.53c-.05,0-.1,0-.16-.03l-4.34-1.43c-.26-.09-.4-.37-.32-.63,.09-.26,.37-.41,.63-.32l3.92,1.29,1.62-3.4c.12-.25,.42-.36,.67-.24,.25,.12,.35,.42,.24,.67l-1.81,3.79c-.08,.18-.26,.29-.45,.29Z"/></g><path class="e" d="M119.67,242.73c9.26,10.94,25.86,15.02,37.77,4.4,4.44-3.95,7.76-9.19,7.76-15.19,0-4.08-1.4-8.02-3.46-11.54-2.12-3.63-5.31-6.4-7.65-9.87-1.39-2.06-1.78-4.62-2.61-6.92-1.26-3.48-2.76-6.88-4.68-10.06-1.27-2.09-2.72-4.09-4.46-5.84-1.04-1.04-2.18-2.01-3.47-2.75-.57-.33-1.17-.62-1.79-.86-2.48-.98-5.28-1.32-7.93-1.29-2.62,.03-5.2,.52-7.62,1.41,.46,.02,19.44,1.16,26.77,22.43,3.01,8.74,13.14,17.85,9.87,27.7-1.04,3.12-2.96,5.92-5.41,8.16-2.69,2.46-6.23,4.55-9.95,4.99-2.85,.33-5.71-.04-8.52-.46-3.63-.55-7.21-1.44-10.65-2.68-1.35-.49-2.67-1.03-3.98-1.63Z"/><path class="c" d="M113.28,231.62c1.05,2.62,2.29,5.17,3.8,7.58,.78,1.24,1.64,2.43,2.59,3.53h0c1.3,.61,2.62,1.15,3.98,1.63,3.44,1.24,7.02,2.13,10.65,2.68,2.81,.43,5.67,.79,8.52,.46,3.72-.43,7.26-2.53,9.95-4.99,2.44-2.24,4.37-5.04,5.41-8.16,3.27-9.85-6.86-18.96-9.87-27.7-7.33-21.27-26.32-22.4-26.77-22.43h0c-1.92,.7-3.73,1.64-5.41,2.81-10.62,7.34-14.98,14.31-2.82,44.58Z"/><path class="b" d="M128.49,204.81c.51,2.31,.93,4.64,1.36,6.96l1.63,8.86c.68,3.69,1.62,7.64,.07,11.26-1.52,3.53-6.17,6.93-10.17,5.14-4.88-2.18-7.85-6.91-9.79-11.56-1.81-4.36-3.18-9.12-4.04-13.75s-1.13-9.34,.08-13.85c1.2-4.48,6.05-9.57,11.28-8.95,3.07,.37,5.04,3,6.23,5.52,1.57,3.31,2.57,6.82,3.36,10.37Z"/><g><path class="g" d="M147.95,264.75c-.12,0-.23-.04-.33-.12l-3.01-2.64c-.16-.14-.21-.37-.13-.56,.08-.2,.27-.31,.49-.31,3.3,.15,5.85-.73,7.59-2.61,3.37-3.62,2.67-9.84,2.67-9.9-.03-.27,.16-.52,.44-.55,.28-.04,.52,.16,.56,.44,.03,.27,.76,6.73-2.92,10.7-1.7,1.83-4.06,2.82-7.02,2.94l2.01,1.76c.21,.18,.23,.5,.05,.71-.1,.11-.24,.17-.38,.17Z"/><path class="g" d="M133.95,263.08c-.12,0-.25-.05-.34-.14l-2.93-2.79c-.15-.15-.2-.37-.11-.56,.08-.19,.27-.32,.49-.3,8.61,.57,12.02-1.25,13.37-2.88,1.33-1.61,.91-3.29,.89-3.36-.07-.27,.09-.54,.35-.61,.27-.07,.54,.08,.61,.35,.02,.09,.58,2.22-1.07,4.23-2.03,2.48-6.36,3.6-12.87,3.33l1.95,1.86c.2,.19,.21,.51,.02,.71-.1,.1-.23,.16-.36,.16Z"/></g><g class="k"><path class="g" d="M130.62,211.66c-.53,0-1.14-.2-1.83-.59-.24-.14-.32-.44-.19-.68,.14-.24,.44-.32,.68-.19,.77,.44,1.37,.57,1.71,.37,.42-.25,.49-1.01,.49-1.26,0-.28,.21-.5,.49-.51,.25-.02,.5,.21,.51,.49,0,.16,0,1.55-.98,2.14-.26,.16-.56,.23-.89,.23Z"/></g><g class="k"><path class="g" d="M131.02,195.53c-.09,0-.18-.02-.26-.07-.24-.14-.31-.45-.17-.69,.87-1.43,1.87-2.17,2.97-2.2,.02,0,.04,0,.07,0,1.71,0,2.92,1.74,2.97,1.82,.16,.23,.1,.54-.13,.69-.23,.16-.54,.1-.69-.13,0-.01-1-1.45-2.19-1.38-.74,.02-1.46,.6-2.14,1.72-.09,.15-.26,.24-.43,.24Z"/></g><g class="k"><path class="g" d="M115.24,203.01h-.02c-.28,0-.49-.24-.48-.52,.05-1.64,.56-2.75,1.49-3.3,1.51-.89,3.51,.11,3.6,.16,.25,.13,.34,.43,.22,.67-.13,.25-.43,.34-.67,.22-.02,0-1.6-.8-2.64-.19-.62,.37-.95,1.2-.99,2.47,0,.27-.23,.48-.5,.48Z"/></g><path class="g" d="M133.75,205.03c-.19,0-.37-.11-.45-.29-.6-1.25-.91-2.37-.95-3.42-.03-.59,.02-2.08,.96-3.07,.22-.23,.5-.39,.79-.44,1.06-.2,2.16,.37,2.72,.72,.72,.45,1.33,1.08,1.78,1.81,.33,.54,.57,1.08,.71,1.59,.07,.27-.09,.54-.35,.61-.26,.07-.54-.09-.61-.35-.11-.42-.31-.86-.59-1.32-.37-.6-.88-1.11-1.46-1.49-.74-.47-1.48-.68-2.01-.59-.09,.02-.17,.06-.25,.15-.68,.71-.7,1.87-.68,2.34,.04,.91,.32,1.9,.86,3.03,.12,.25,.01,.55-.24,.67-.07,.03-.14,.05-.21,.05Z"/><path class="g" d="M119.6,211.01c-.19,0-.37-.11-.45-.29-.6-1.25-.91-2.37-.95-3.42-.03-.59,.02-2.08,.96-3.07,.22-.24,.5-.39,.79-.44,1.05-.19,2.16,.37,2.72,.72,.72,.45,1.33,1.08,1.78,1.81,.33,.54,.57,1.08,.71,1.59,.07,.27-.09,.54-.35,.61-.27,.07-.54-.09-.61-.35-.11-.42-.31-.86-.59-1.32-.37-.6-.88-1.11-1.46-1.48-.74-.47-1.48-.68-2.01-.58-.09,.02-.17,.06-.24,.15-.68,.72-.71,1.88-.69,2.34,.04,.91,.32,1.9,.86,3.03,.12,.25,.01,.55-.24,.67-.07,.03-.14,.05-.21,.05Z"/><g><path class="g" d="M106.1,232.21c-2.78,0-5.79-1.41-8.95-4.2-.12-.11-.19-.27-.17-.44l.47-3.69c.04-.27,.28-.47,.56-.43,.27,.04,.47,.29,.43,.56l-.43,3.43c3.58,3.1,6.87,4.3,9.79,3.57,4.7-1.17,6.95-7.03,6.97-7.09,.1-.26,.38-.39,.64-.29,.26,.1,.39,.38,.29,.64-.1,.26-2.44,6.4-7.66,7.71-.64,.16-1.29,.24-1.95,.24Z"/><path class="g" d="M93.62,228.67c-.25,0-.46-.18-.49-.43-.04-.27,.15-.53,.43-.56l2.81-.39-2.33-2.14c-.2-.19-.22-.5-.03-.71,.19-.21,.5-.22,.71-.03l3.12,2.86c.14,.13,.2,.33,.14,.52-.06,.19-.22,.32-.41,.35l-3.86,.54s-.05,0-.07,0Z"/></g><g class="k"><ellipse class="f" cx="158.67" cy="235.56" rx="3.15" ry=".95"/><ellipse class="f" cx="132.33" cy="228.9" rx="3.96" ry=".95"/><ellipse class="f" cx="140.91" cy="221.1" rx="2.21" ry="1.11"/><ellipse class="f" cx="149.55" cy="223.49" rx="2.33" ry=".98"/><ellipse class="f" cx="150.7" cy="248.9" rx="2.8" ry=".71"/><ellipse class="f" cx="133.19" cy="241.98" rx=".73" ry=".71"/><ellipse class="f" cx="150.46" cy="214.21" rx="3.25" ry=".95" transform="translate(-29.98 24.57) rotate(-8.49)"/><ellipse class="f" cx="131.34" cy="216.19" rx=".73" ry=".71"/><ellipse class="f" cx="113.97" cy="222.21" rx="2.33" ry=".74"/><ellipse class="f" cx="111.33" cy="209.02" rx=".78" ry=".74"/><ellipse class="f" cx="125.69" cy="205.93" rx=".73" ry=".71"/><ellipse class="f" cx="126.67" cy="193.72" rx="1.57" ry=".59" transform="translate(-33.06 26.22) rotate(-10.46)"/><ellipse class="f" cx="116" cy="198.3" rx="1.57" ry=".59" transform="translate(-34.07 24.36) rotate(-10.46)"/><ellipse class="f" cx="140.91" cy="196.68" rx="1.57" ry=".59" transform="translate(-33.36 28.85) rotate(-10.46)"/></g></g><path class="d" d="M103.14,209.43c-1.35,.42-2.85,.43-4.26,.55-1.97,.16-3.96,.31-5.94,.31-5.42,.31-10.85,.54-16.27,.9-4.64,.3-9.27,.7-13.87,1.33,0,7.79-.03,15.27,0,22.74,.03,6.12,.43,12.24,.15,18.34-.32,7.05-5.22,12.37-12.39,13.61-4.91,.85-9.93,.65-14.91,.18-7.43-.7-13.4-9.51-13.8-16.51-.84-14.62-1.93-29.23-1.62-43.9,.29-13.39-1.48-26.7-2.58-40-.54-6.53-1.3-13.05-2.14-19.55-.49-3.8-.99-7.62-.78-11.46,.14-2.66,.73-5.23,1.67-7.72,.91-2.4,2.27-4.63,4.29-6.26,.06-.05,.13-.1,.19-.15,2.46-1.9,5.52-2.72,8.59-2.87,18.37-.86,36.75-1.65,55.13-2.42,7.79-.33,15.58-.54,23.36-.8,6.47-.16,12.2,1.48,15.97,7.17,6.57,9.92,1.52,23.46-9.89,26.75-1.57,.45-3.16,.85-4.73,1.27-12.01,.37-24.03-.02-36.02,.98-3.56,.3-7.08,1-10.64,1.18-3.03,.15-3.8,1.8-3.99,4.41-.41,5.65,.67,11.19,.95,17.19,5.59,.66,11.1-.52,16.63-.92,8.53-.63,17.04-1.64,25.53,.38,6.81,1.62,11.9,5.11,13.79,12.23,.56,2.11,1.08,4.16,1.11,6.36,.03,1.95-.28,3.91-.96,5.74-.76,2.06-1.97,3.97-3.5,5.55-1.11,1.15-2.47,2.02-3.84,2.84-.95,.58-1.96,1.13-2.97,1.61-.52,.25-1.05,.49-1.59,.71-.23,.09-.46,.18-.69,.25Z"/><path class="d" d="M371.62,51.51c-8.96,0-17.91,.08-26.87-.04-3.02-.04-4.42,1.29-4.88,4.11-.81,4.94-.69,9.92-.73,14.9-.02,2.26,1.25,2.4,2.98,2.33,12.13-.45,24.27-1,36.4,.1,3.84,.35,7.59,1.07,11.23,2.3,8.16,2.77,12.13,8.82,11.58,17.57-.42,6.72-5.97,12.32-13.79,13.92-8.47,1.73-17.05,1.39-25.61,1.36-6.52-.02-13.05,.16-19.57,.16-2.51,0-3.5,.84-3.64,3.57-.52,10.44-1.38,20.87-2.05,31.3-.57,8.82-6.45,14.99-15.38,15.57-4.45,.29-8.95-.11-13.42-.14-7.24-.05-12.24-3.8-15.69-9.75-1.26-2.16-1.48-4.85-1.45-7.35,.13-13.74,.69-27.43,1.87-41.15,1.25-14.43,.91-28.96,0-43.47-.47-7.51-.53-15.1,0-22.59,.75-10.78,9.42-16.76,18.01-16.6,24.05,.45,48.12,.26,72.18,.4,6.26,.04,12.52,.32,18.78,.62,8.61,.41,15.35,5.86,16.3,13.03,1.13,8.51-3.94,15.91-12.59,18.57-6.27,1.93-12.7,1.07-19.06,1.2-4.86,.1-9.72,.02-14.58,.02v.04Z"/><path class="j" d="M109.33,150.93c1.58-.42,3.16-.82,4.73-1.27,11.41-3.29,16.46-16.83,9.89-26.75-3.77-5.68-9.5-7.32-15.97-7.17,.41-16.1-1.56-32.09-2.8-48.08-.65-8.46-1.84-16.95-2.73-25.43-.39-3.68-.16-7.4,.86-11.01,1.96-6.91,6.38-10.82,13.38-11.08,27.08-1.04,54.13-3.08,81.25-3.13,8.71-.02,15,5.63,16.04,14.27-8.07,5.11-13.82,12.13-17.36,20.98-4.72,0-9.44-.04-14.15,.02-10.85,.14-21.69,.34-32.47,1.93-2.82,.42-3.57,1.82-3.75,4.22-.44,6.11,.59,12.12,.98,18.2,3.09,.31,5.87,0,8.66-.21,13.18-.98,26.43-3.67,39.38,1.5,.21,3.79,.44,7.59,.63,11.38,.32,6.41,.6,12.82,.9,19.23-8.59,4.07-17.88,3.77-27.03,4.25-6.5,.34-12.99,.54-19.45,1.73,0,7.35-.03,14.56,0,21.78,.03,6.25,.38,12.51,.14,18.75-.26,6.72-5.23,12.04-12.28,13.26-4.92,.86-9.93,.62-14.91,.22-7.03-.57-13.72-9.26-13.95-17.58Z"/><path class="h" d="M196.81,108.52c-.3-6.41-.59-12.82-.9-19.23-.19-3.8-.42-7.59-.63-11.39-.39-8.6-.62-17.19,1.34-25.67,3.54-8.85,9.29-15.87,17.36-20.98,5.12-2.43,8.98-3.93,15.96-5.09,6.31-1.04,11.44-1.57,16.47-1.11,12.27,1.11,23.38,6.17,29.71,17.92,2.33,4.31,4.67,8.5,5.7,13.58,1.85,9.16-4.56,18.38-15.61,18.15-6-.12-9.92-1.52-12.32-7.03-1.12-2.56-2.65-4.94-4.11-7.33-3.16-5.2-7.76-7.27-12.77-5.87-5.55,1.55-9.38,6.3-9.43,11.96-.09,11.11,1.26,22.15,2.13,33.2,.37,4.68,.36,9.37,.94,14.05,.64,5.21,9.12,9.78,13.58,8.18,6.14-2.21,9.65-6.96,8.95-13.13-1.16-10.17,4.62-18.39,13.3-18.93,11.9-.74,19.92,6.26,20.35,17.75,.81,21.82-13.66,39.17-35.75,42.76-9.71,1.58-19.36,1.3-28.77-1.85-13.82-4.64-24.58-18.91-25.34-33.48-.11-2.15-.11-4.31-.16-6.47Z"/><path class="i" d="M328.08,192.13c.28,.86,.5,1.74,.78,2.6,.25,.84,.58,1.66,.94,2.46,.4,.91,.86,1.79,1.36,2.65,.28,.48,.57,.94,.87,1.4,1,1.52,2.15,2.94,3.39,4.27,1.26,1.34,2.62,2.57,4.07,3.7s2.95,2.14,4.53,3.04c7.64,4.39,16.43,6.34,25.15,7.61,2.46,.36,4.96,.67,7.24,1.66s4.35,2.77,5.05,5.15c1.13,3.84-1.83,8.02-5.63,9.29-3.8,1.27-8.02,.22-11.58-1.61s-6.69-4.4-10.13-6.44c-3.44-2.04-7.43-3.57-11.39-3-4.64,.67-8.54,4.24-10.47,8.51-1.11,2.46-1.66,5.24-1.16,7.9,1.07,5.65,6.41,9.36,11.48,12.08,7.38,3.96,15.25,7.21,23.52,8.5,8.28,1.3,17.02,.54,24.54-3.15,9.26-4.54,16.18-13.57,18.17-23.68s-1-21.09-7.85-28.8c-7.99-9-20.26-13.06-32.22-14.38-4.4-.48-9.47-1-11.94-4.67-2.67-3.97-.41-9.83,3.72-12.26s9.34-2.11,13.93-.77,8.87,3.62,13.46,4.98,9.8,1.71,13.95-.67c5.28-3.04,7.4-10.5,4.57-15.9-2.67-5.09-8.48-7.57-13.92-9.41-10.11-3.42-20.73-5.98-31.36-5.13s-21.35,5.51-27.56,14.19c-.19,.27-.38,.54-.56,.81s-.36,.55-.53,.83-.34,.56-.5,.84-.32,.57-.47,.86-.3,.58-.45,.87-.28,.59-.42,.89-.27,.6-.39,.9-.25,.6-.37,.91-.23,.61-.34,.92-.21,.62-.31,.93-.2,.63-.29,.94-.18,.63-.26,.95-.16,.64-.24,.96-.15,.64-.22,.96-.13,.65-.19,.97-.12,.65-.17,.98-.1,.65-.15,.98-.09,.66-.13,.99-.08,.66-.11,.99-.06,.66-.09,.99-.05,.66-.07,1-.03,.66-.05,1-.02,.67-.03,1,0,.67-.01,1c0,.68,.01,1.36,.03,2.04,.06,1.8,.26,3.63,.82,5.37Z"/><path class="h" d="M326.91,191.28c-.18-.64-.31-1.3-.5-1.94-.2-.68-.43-1.34-.65-2.01-.33-.99-.68-1.97-1.07-2.95s-.75-1.86-1.17-2.77-.83-1.74-1.28-2.59-.9-1.62-1.39-2.41-.98-1.51-1.51-2.24-1.06-1.4-1.62-2.07-1.14-1.29-1.74-1.89-1.22-1.18-1.86-1.73-1.3-1.07-1.99-1.56-1.39-.96-2.11-1.39-1.48-.85-2.24-1.23-1.57-.74-2.37-1.07-1.66-.63-2.5-.91-1.75-.53-2.64-.75-1.85-.42-2.78-.59-1.94-.32-2.92-.44-2.04-.22-3.06-.28-2.14-.11-3.21-.13c-.43,0-.86-.01-1.29-.01h-12.41c-8.28,0-16.56,0-24.84,.03-1.98,0-3.6,1.62-3.6,3.6v87.9c0,2.64,2.13,4.77,4.77,4.79,13.88,.12,27.66,.64,41.35-.22,16.53-1.04,28.32-9.67,33.33-26.01,2.02-6.6,2.71-13.46,2.86-20.4,0-.42,.01-.84,.01-1.26s0-.84-.01-1.26-.02-.84-.04-1.26-.04-.84-.06-1.26-.05-.84-.08-1.26-.06-.84-.09-1.26-.06-.84-.1-1.25-.07-.84-.1-1.25-.07-.84-.11-1.25-.07-.84-.1-1.25-.07-.84-.1-1.25c-.06-.82-.12-1.65-.24-2.47s-.32-1.64-.55-2.44Zm-29.46,40.67c-2.16,14.1-8.67,18.79-23.37,16.96-.02,0-.03-.02-.03-.03v-80.69s.01-.04,.03-.04c3.54-.27,6.94-.3,10.31,.22,6.12,.93,9.68,4.8,11.51,10.43,2.23,6.85,2.61,14,2.93,21.12,.49,10.71,.24,21.42-1.38,32.03Z"/></svg>